<svg width="59" height="59" viewBox="0 0 59 59" fill="none" xmlns="http://www.w3.org/2000/svg">
<path d="M47.5 29.5C47.5 19.5589 39.4411 11.5 29.5 11.5C19.5589 11.5 11.5 19.5589 11.5 29.5C11.5 39.4411 19.5589 47.5 29.5 47.5C39.4411 47.5 47.5 39.4411 47.5 29.5Z" fill="url(#paint0_linear)" stroke="url(#paint1_linear)" stroke-width="23"/>
<g filter="url(#filter0_d)">
<path fill-rule="evenodd" clip-rule="evenodd" d="M46.4687 31.9143L16.9135 31.9143C16.2346 31.9143 15.6814 31.3985 15.6814 30.7623C15.6814 30.1261 16.2346 29.6117 16.9135 29.6117L46.4687 29.6117C47.1476 29.6117 47.7008 30.1261 47.7008 30.7623C47.7008 31.3985 47.1476 31.9143 46.4687 31.9143Z" fill="black"/>
<path fill-rule="evenodd" clip-rule="evenodd" d="M30.5543 44.6681C30.2386 44.6681 29.9245 44.5549 29.6839 44.3314L15.1714 30.7622L29.6839 17.1945C30.1651 16.7446 30.9435 16.7446 31.4247 17.1945C31.9059 17.6444 31.9059 18.3723 31.4247 18.8222L18.6547 30.7622L31.4247 42.7022C31.9059 43.1521 31.9059 43.8815 31.4247 44.3314C31.1841 44.5549 30.87 44.6681 30.5543 44.6681Z" fill="black"/>
</g>
<defs>
<filter id="filter0_d" x="12.1714" y="13.8571" width="41.7143" height="36.6573" filterUnits="userSpaceOnUse" color-interpolation-filters="sRGB">
<feFlood flood-opacity="0" result="BackgroundImageFix"/>
<feColorMatrix in="SourceAlpha" type="matrix" values="0 0 0 0 0 0 0 0 0 0 0 0 0 0 0 0 0 0 127 0" result="hardAlpha"/>
<feOffset dx="1" dy="1"/>
<feGaussianBlur stdDeviation="2"/>
<feColorMatrix type="matrix" values="0 0 0 0 0 0 0 0 0 0 0 0 0 0 0 0 0 0 0.15 0"/>
<feBlend mode="normal" in2="BackgroundImageFix" result="effect1_dropShadow"/>
<feBlend mode="normal" in="SourceGraphic" in2="effect1_dropShadow" result="shape"/>
</filter>
<linearGradient id="paint0_linear" x1="0" y1="7.76603e-06" x2="59" y2="7.76603e-06" gradientUnits="userSpaceOnUse">
<stop stop-color="#74EDE6"/>
<stop offset="1" stop-color="#9FC3F9"/>
</linearGradient>
<linearGradient id="paint1_linear" x1="0" y1="7.76603e-06" x2="59" y2="7.76603e-06" gradientUnits="userSpaceOnUse">
<stop stop-color="#74EDE6"/>
<stop offset="1" stop-color="#9FC3F9"/>
</linearGradient>
</defs>
</svg>
